2.2Hzhigh_3min_grf.mot
version=1
nRows=30
nColumns 19
inDegrees=yes
endheader
time	1_ground_force_vx	1_ground_force_vy	1_ground_force_vz	1_ground_force_px	1_ground_force_py	1_ground_force_pz	1_ground_torque_x	1_ground_torque_y	1_ground_torque_z	2_ground_force_vx	2_ground_force_vy	2_ground_force_vz	2_ground_force_px	2_ground_force_py	2_ground_force_pz	2_ground_torque_x	2_ground_torque_y	2_ground_torque_z
            3.751500	           -0.595162	           -0.001491	            0.322470	           -0.233013	            0.005581	           -0.255695	            0.155203	            0.230772	           -0.006009	           -8.495100	           16.561646	           -5.193226	           -0.039530	            0.005953	           -0.588966	            0.018194	           -0.035471	            0.011122
            3.752000	           -0.319472	            0.898514	            0.646644	           -0.233013	            0.005581	           -0.255695	            0.122164	            0.138550	           -0.013424	           -8.634238	           16.192172	           -5.006768	           -0.040671	            0.005937	           -0.585809	           -0.021084	            0.039539	           -0.012226
            3.752500	           -0.091231	           -0.000804	            0.183651	           -0.233013	            0.005581	           -0.255695	            0.048544	           -0.064811	            0.014490	           -9.102840	           16.191318	           -5.241209	           -0.031911	            0.005963	           -0.584222	           -0.070770	            0.125879	           -0.040747
            3.753000	            0.364318	            1.445932	           -0.865989	           -0.233013	            0.005581	           -0.255695	            0.148957	           -0.341839	            0.013751	           -8.824235	           16.927587	           -4.863275	           -0.049605	            0.005955	           -0.599777	           -0.037708	            0.072336	           -0.020782
            3.753500	            0.776646	            0.365204	           -1.055074	           -0.233013	            0.005581	           -0.255695	            0.176206	           -0.396950	           -0.006518	           -8.868652	           16.192665	           -5.382093	           -0.032958	            0.005949	           -0.581144	           -0.039484	            0.072092	           -0.023962
            3.754000	            0.548681	            1.624463	           -0.452968	           -0.233013	            0.005581	           -0.255695	            0.056093	           -0.147566	            0.003829	           -8.917414	           16.744272	           -5.192389	           -0.044694	            0.005940	           -0.590687	           -0.022238	            0.041757	           -0.012949
            3.754500	           -0.045582	           -0.180668	            0.091053	           -0.233013	            0.005581	           -0.255695	            0.015044	            0.119988	            0.036125	           -8.684535	           17.113749	           -5.285031	           -0.049156	            0.005952	           -0.598460	           -0.009436	            0.018594	           -0.005742
            3.755000	           -0.364940	            0.717650	            0.783553	           -0.233013	            0.005581	           -0.255695	            0.116528	            0.258455	            0.041550	           -8.826434	           17.481705	           -5.330585	           -0.051483	            0.005950	           -0.600249	            0.008457	           -0.016750	            0.005107
            3.755500	           -0.502322	            0.537161	            0.828977	           -0.233013	            0.005581	           -0.255695	            0.227106	            0.073950	           -0.059364	           -8.586080	           15.824212	           -5.055030	           -0.032084	            0.005938	           -0.577400	           -0.035620	            0.065648	           -0.020971
            3.756000	           -0.137415	           -0.000223	            0.046197	           -0.233013	            0.005581	           -0.255695	            0.073149	           -0.166429	           -0.006759	           -8.588738	           16.560805	           -5.052401	           -0.039222	            0.005964	           -0.591707	            0.010282	           -0.019826	            0.006049
            3.756500	            0.502919	            1.804524	           -0.406225	           -0.233013	            0.005581	           -0.255695	            0.073059	           -0.351340	            0.094943	           -8.963517	           16.559285	           -5.005314	           -0.040262	            0.005937	           -0.585365	           -0.091958	            0.169884	           -0.051350
            3.757000	            0.410259	            0.905144	           -0.868422	           -0.233013	            0.005581	           -0.255695	            0.074313	           -0.332750	            0.053546	           -9.011155	           16.744268	           -5.286206	           -0.040954	            0.005955	           -0.590930	           -0.064159	            0.119219	           -0.037638
            3.757500	            0.548342	            0.363587	           -0.687658	           -0.233013	            0.005581	           -0.255695	            0.235573	           -0.101242	           -0.015171	           -8.591684	           17.299742	           -5.706767	           -0.057783	            0.005904	           -0.593661	            0.023215	           -0.046745	            0.015420
            3.758000	            0.136160	            1.263852	           -0.453490	           -0.233013	            0.005581	           -0.255695	            0.037548	            0.147868	            0.025158	           -8.729391	           16.561135	           -5.286982	           -0.035812	            0.005956	           -0.586051	            0.010116	           -0.019191	            0.006126
            3.758500	           -0.182674	            0.539385	            0.323765	           -0.233013	            0.005581	           -0.255695	            0.211304	            0.258542	            0.049140	           -8.495806	           16.746129	           -5.286425	           -0.041801	            0.005937	           -0.586948	            0.021965	           -0.043295	            0.013667
            3.759000	           -0.686099	           -0.363220	            0.596288	           -0.233013	            0.005581	           -0.255695	            0.144046	            0.091522	            0.121112	           -8.685179	           17.297730	           -5.237446	           -0.050154	            0.005936	           -0.594912	           -0.036394	            0.072483	           -0.021946
            3.759500	           -0.275043	            0.540547	            0.048857	           -0.233013	            0.005581	           -0.255695	            0.204253	           -0.249738	            0.005473	           -8.917352	           16.743770	           -5.051605	           -0.043981	            0.005943	           -0.590837	           -0.043695	            0.082045	           -0.024753
            3.760000	            0.090611	            0.902919	           -0.363210	           -0.233013	            0.005581	           -0.255695	            0.165585	           -0.305455	            0.114945	           -9.104875	           16.744097	           -5.333094	           -0.040681	            0.005936	           -0.585427	           -0.103696	            0.190699	           -0.060739
            3.760500	            0.502320	            0.724306	           -0.731854	           -0.233013	            0.005581	           -0.255695	            0.105740	           -0.313566	           -0.092919	           -8.778255	           17.113578	           -5.331919	           -0.047686	            0.005940	           -0.593570	           -0.019683	            0.038372	           -0.011955
            3.761000	            0.685464	            0.724734	           -0.824021	           -0.233013	            0.005581	           -0.255695	            0.109899	           -0.036665	            0.028865	           -8.776987	           16.745783	           -5.474018	           -0.039895	            0.005945	           -0.587058	            0.001197	           -0.002283	            0.000746
            3.761500	            0.319388	            0.182884	           -0.596150	           -0.233013	            0.005581	           -0.255695	            0.194383	            0.231007	            0.070579	           -8.633676	           16.008861	           -5.242065	           -0.034176	            0.005961	           -0.585754	           -0.009377	            0.017387	           -0.005693
            3.762000	           -0.000491	            1.442519	           -0.085528	           -0.233013	            0.005581	           -0.255695	            0.134344	            0.240351	            0.000646	           -8.493127	           16.009368	           -5.242125	           -0.034800	            0.005934	           -0.578885	            0.006853	           -0.012918	            0.004230
            3.762500	           -0.457049	            0.538153	            0.599584	           -0.233013	            0.005581	           -0.255695	            0.218361	            0.008854	            0.036324	           -8.683205	           16.745452	           -5.286345	           -0.046635	            0.005940	           -0.592678	            0.000896	           -0.001728	            0.000546
            3.763000	           -0.503266	            0.718999	            0.462903	           -0.233013	            0.005581	           -0.255695	            0.074165	           -0.259581	            0.108762	           -8.492483	           15.825387	           -5.289710	           -0.028446	            0.005945	           -0.575508	           -0.005434	            0.010126	           -0.003385
            3.763500	           -0.228517	            0.539377	            0.323879	           -0.233013	            0.005581	           -0.255695	            0.098683	           -0.342161	            0.007293	           -8.916770	           16.560291	           -5.239974	           -0.041480	            0.005945	           -0.588728	           -0.053519	            0.099396	           -0.031451
            3.764000	            0.411122	            0.543236	           -0.548976	           -0.233013	            0.005581	           -0.255695	            0.192107	           -0.249284	           -0.002771	           -8.823090	           16.560796	           -5.286942	           -0.036532	            0.005966	           -0.589727	           -0.032323	            0.060670	           -0.019368
            3.764500	            0.455794	            0.725477	           -1.006876	           -0.233013	            0.005581	           -0.255695	            0.023634	            0.046719	           -0.055529	           -8.726732	           15.824542	           -5.289610	           -0.033258	            0.005945	           -0.580479	           -0.065812	            0.119339	           -0.039891
            3.765000	            0.731502	            0.904616	           -0.731650	           -0.233013	            0.005581	           -0.255695	            0.124416	            0.222499	           -0.043304	           -8.776946	           16.745449	           -5.380161	           -0.041457	            0.005947	           -0.589281	           -0.017410	            0.033217	           -0.010672
            3.765500	           -0.000767	            1.082577	           -0.224642	           -0.233013	            0.005581	           -0.255695	            0.084517	            0.138015	            0.150728	           -8.677265	           15.088452	           -5.386115	           -0.019648	            0.005924	           -0.560809	           -0.067975	            0.118199	           -0.042193
            3.766000	           -0.228370	            0.358914	            0.368962	           -0.233013	            0.005581	           -0.255695	            0.040528	           -0.092680	            0.027312	           -8.728664	           16.376484	           -5.146855	           -0.041568	            0.005936	           -0.586456	           -0.023622	            0.044318	           -0.013929
